<svg xmlns="http://www.w3.org/2000/svg" xmlns:xlink="http://www.w3.org/1999/xlink" viewBox="0 0 778.93 593.92"><defs><style>.cls-1{fill:none;}.cls-2{fill:#10aaaa;}.cls-3{fill:#f4f4f4;}.cls-4{fill:#202020;}.cls-5{fill:#373737;}.cls-6{fill:#ddd;}.cls-7{opacity:0.4;}.cls-8{clip-path:url(#clip-path);}</style><clipPath id="clip-path" transform="translate(-11.87 5.9)"><rect class="cls-1" x="126.82" y="63.45" width="332.83" height="245.5" rx="122.75" transform="translate(640.29 200.83) rotate(150)"/></clipPath></defs><g id="za_cloud" data-name="za cloud"><path class="cls-2" d="M43.59,212.08a26.78,26.78,0,0,1,26.72-27.3h41.36c14.65,0,27.07,11.49,27.39,26.13a26.78,26.78,0,0,1-26.72,27.31H71C56.33,238.22,43.91,226.72,43.59,212.08ZM80.8,483.14l575.43-22.83c-21-18-18.9-39.52-7.07-51.35a30,30,0,0,1,21.25-8.84h46.18a41,41,0,0,0,0-82h-74.1c-11.43,0-21.25-8.77-21.86-20.19q0-.68,0-1.35A25.5,25.5,0,0,1,646,271.16H692.6a39.82,39.82,0,0,0,0-79.64H451.78l-.06,0a26.57,26.57,0,0,0-17.66-6.72H194.84a26.78,26.78,0,0,0-26.71,27.3c.32,14.64,12.74,26.14,27.38,26.14h7c14.93,0,27.59,11.74,27.9,26.67a27.32,27.32,0,0,1-27.23,27.82H35.61c-12.73,0-23.55,10-23.74,22.74A23.19,23.19,0,0,0,35,338.89h71.89c10.09,0,18.69,8,18.74,18.07a18.2,18.2,0,0,1-18.16,18.25H79.91A54.13,54.13,0,0,0,26,431.11C27,460.3,51.6,483.14,80.8,483.14Z" transform="translate(-11.87 5.9)"/><path class="cls-3" d="M100.21,498.18c-8.47,0-15.47-6.63-15.62-14.77a15.11,15.11,0,0,1,15-15.31h51.86c14.63,0,26.92-11.18,28-25.45A27.56,27.56,0,0,0,152,413.08h-6c-9.55,0-17.54-7.18-18.2-16.35a17.71,17.71,0,0,1,17.6-18.94H235c17.94,0,33-13.73,34.25-31.27a33.79,33.79,0,0,0-33.64-36.18H216.51c-11.81,0-21.64-9.32-21.91-20.76a21.33,21.33,0,0,1,21.26-21.77H352.57c16.92,0,30.92-13.5,31.21-30.09a30.67,30.67,0,0,0-30.62-31.16h-8.48c-12.1,0-22.17-9.55-22.43-21.29A21.87,21.87,0,0,1,344,163H621.5c12.1,0,22.17,9.55,22.43,21.29a21.87,21.87,0,0,1-21.77,22.28H573.92A44.81,44.81,0,0,0,542,219.82a45.3,45.3,0,0,0-13.24,33.26c.73,24.15,21.29,43.79,45.83,43.79H756.06c14.5,0,26.58,11.45,26.93,25.53a26.28,26.28,0,0,1-26.18,26.85H639.91a44.06,44.06,0,0,0-31.35,13,44.54,44.54,0,0,0-13,32.74c.73,23.71,20.93,43,45,43h7.86c16.49,0,30.29,13.09,30.76,29.19a30.2,30.2,0,0,1-30.07,31Z" transform="translate(-11.87 5.9)"/><path class="cls-4" d="M621.5,170.79c7.9,0,14.47,6.13,14.64,13.66a14.07,14.07,0,0,1-14,14.31H573.92a52.56,52.56,0,0,0-37.4,15.54,53.15,53.15,0,0,0-15.53,39c.85,28.32,24.9,51.35,53.62,51.35H756.06c10.31,0,18.9,8,19.14,17.93a18.49,18.49,0,0,1-18.39,18.87H639.91a51.77,51.77,0,0,0-36.86,15.31,52.35,52.35,0,0,0-15.29,38.5c.87,27.86,24.57,50.53,52.83,50.53h7.86c12.32,0,22.62,9.7,23,21.63a22.39,22.39,0,0,1-22.28,22.95H100.21c-4.17,0-7.76-3.25-7.82-7.11a7.29,7.29,0,0,1,7.24-7.37h51.86c18.69,0,34.39-14.35,35.75-32.67a35.35,35.35,0,0,0-35.2-38h-6c-5.48,0-10.06-4-10.42-9.11a9.92,9.92,0,0,1,9.82-10.58H235c22,0,40.47-16.92,42-38.51a41.59,41.59,0,0,0-41.41-44.54H216.51c-7.61,0-13.95-5.9-14.11-13.14a13.51,13.51,0,0,1,13.46-13.79H352.57c21.14,0,38.64-16.94,39-37.75a38.49,38.49,0,0,0-38.42-39.1h-8.48c-7.9,0-14.47-6.13-14.64-13.66a14.07,14.07,0,0,1,14-14.31H621.5m0-15.59H344a29.65,29.65,0,0,0-29.57,30.25c.36,16.18,14,28.9,30.22,28.9h8.48A22.9,22.9,0,0,1,376,237.59c-.22,12.55-10.87,22.43-23.42,22.43H215.86a29.12,29.12,0,0,0-29.05,29.74c.37,15.89,13.81,28.37,29.7,28.37h19.08A26,26,0,0,1,261.45,346c-1,13.66-12.77,24-26.47,24H145.47a25.49,25.49,0,0,0-25.37,27.28c1,13.41,12.53,23.59,26,23.59h6a19.77,19.77,0,0,1,19.66,21.2c-.78,10.39-9.79,18.24-20.21,18.24H99.63A22.88,22.88,0,0,0,76.8,483.54C77,496.09,87.66,506,100.21,506H649.14A38,38,0,0,0,687,467c-.6-20.6-18-36.77-38.55-36.77h-7.86c-19.87,0-36.63-15.57-37.24-35.43a36.66,36.66,0,0,1,36.56-37.73h116.9a34.09,34.09,0,0,0,34-34.84c-.46-18.56-16.17-33.14-34.73-33.14H574.61c-20.31,0-37.43-15.92-38-36.22a37.48,37.48,0,0,1,37.34-38.5h48.24a29.63,29.63,0,0,0,29.56-30.25c-.36-16.18-14-28.9-30.22-28.9Z" transform="translate(-11.87 5.9)"/><rect class="cls-2" x="222.59" y="426.62" width="323.08" height="39.19" rx="19.59"/><rect class="cls-2" x="299.73" y="353.05" width="244.39" height="42.04" rx="21.02"/><rect class="cls-2" x="327" y="244.12" width="157.89" height="69.73" rx="34.87"/></g><g id="za_lupa" data-name="za lupa"><rect class="cls-4" x="301.3" y="308.96" width="156.11" height="63.29" rx="31.64" transform="translate(472.79 -152.33) rotate(60)"/><rect class="cls-4" x="103.01" y="37.78" width="380.45" height="296.83" rx="148.42" transform="translate(628.42 206.73) rotate(150)"/><rect class="cls-2" x="126.82" y="63.45" width="332.83" height="245.5" rx="122.75" transform="translate(628.42 206.73) rotate(150)"/><rect class="cls-4" x="322.38" y="394.9" width="268.15" height="112.03" rx="43.62" transform="translate(606.86 -163.95) rotate(60)"/><rect class="cls-5" x="306.81" y="403.89" width="268.15" height="112.03" rx="43.62" transform="translate(606.86 -145.96) rotate(60)"/><rect class="cls-6" x="350.41" y="404.2" width="79.08" height="22.33" rx="11.17" transform="translate(542.82 -124.12) rotate(60)"/><rect class="cls-6" x="407.93" y="470.03" width="40.04" height="22.33" rx="11.17" transform="translate(618.83 -124.12) rotate(60)"/><rect class="cls-6" x="158.88" y="161.15" width="41.32" height="112.49" rx="20.66"/><rect class="cls-6" x="217.34" y="116.3" width="31.68" height="63.81" rx="15.84"/><g class="cls-7"><g class="cls-8"><path class="cls-4" d="M429.76,75.5l-56-56-3.13-3.12A146.51,146.51,0,0,0,342.09-5.9a17.22,17.22,0,0,0-3.22,10.05V161.64a17.45,17.45,0,1,0,34.89,0V146.35a8.82,8.82,0,0,1,17.64,0v95.31a8.82,8.82,0,1,1-17.64,0V217.42a17.45,17.45,0,0,0-34.89,0V328a147.84,147.84,0,0,0,90.89-42.62C487.49,227.67,487.49,133.21,429.76,75.5Zm-5.19,99.68a11.95,11.95,0,0,1-23.89,0V126.57a11.95,11.95,0,0,1,23.89,0Z" transform="translate(-11.87 5.9)"/></g></g></g></svg>