<svg id="Layer_1" data-name="Layer 1" xmlns="http://www.w3.org/2000/svg" viewBox="0 0 160 200"><path d="M128,180H112a22,22,0,0,1-22-22V135H70v23a22,22,0,0,1-22,22H32a22,22,0,0,1-22-22V85.62a21.91,21.91,0,0,1,7.92-16.9L73.6,22.32a10,10,0,0,1,12.8,0l55.68,46.4A21.91,21.91,0,0,1,150,85.62V158A22,22,0,0,1,128,180ZM66,115H94a16,16,0,0,1,16,16v27a2,2,0,0,0,2,2h16a2,2,0,0,0,2-2V85.62a2,2,0,0,0-.72-1.54L80,43,30.72,84.08A2,2,0,0,0,30,85.62V158a2,2,0,0,0,2,2H48a2,2,0,0,0,2-2V131A16,16,0,0,1,66,115Z"/></svg>