<svg id="Layer_1" data-name="Layer 1" xmlns="http://www.w3.org/2000/svg" viewBox="0 0 200 200"><path d="M126.67,36.67A63.33,63.33,0,1,0,190,100,63.4,63.4,0,0,0,126.67,36.67Zm0,106.66A43.33,43.33,0,1,1,170,100,43.38,43.38,0,0,1,126.67,143.33Zm3.11-72.07a63.41,63.41,0,0,1,0,57.49,10,10,0,1,1-17.81-9.1,43.43,43.43,0,0,0,0-39.3,10,10,0,1,1,17.81-9.09Zm-55.63,83a10,10,0,0,1-9.85,8.32,9.74,9.74,0,0,1-1.69-.15,63.34,63.34,0,0,1,0-124.85A10,10,0,1,1,66,57.28a43.35,43.35,0,0,0,0,85.43A10,10,0,0,1,74.15,154.25Z"/></svg>