<svg xmlns="http://www.w3.org/2000/svg" viewBox="0 0 160 200"><path d="M144.87,87.91a10,10,0,0,0-13.6,3.86,75.46,75.46,0,0,1-29.19,28c-.23.11-.46.23-.68.36A63.77,63.77,0,0,1,79,126.7h0a64.88,64.88,0,0,1-26.74-2.88,9.17,9.17,0,0,0-1.12-.37,72.39,72.39,0,0,1-24.4-14.22,10,10,0,0,0-13.42,14.83,90.28,90.28,0,0,0,16.57,11.69,10,10,0,0,0,13.66,14.56l7.27-6.1A84.75,84.75,0,0,0,70,147v3.33a10,10,0,0,0,20,0v-5.16a82.94,82.94,0,0,0,14.8-4.66l7.07,5.94a10,10,0,0,0,12.86-15.32l-1.47-1.24a97.52,97.52,0,0,0,25.47-28.37A10,10,0,0,0,144.87,87.91Z"/></svg>