<svg xmlns="http://www.w3.org/2000/svg" viewBox="0 0 160 200"><path d="M80,91.29a10,10,0,0,0-10,10v10a10,10,0,1,0,20,0v-10A10,10,0,0,0,80,91.29Z"/><path d="M149.28,100.34a5.37,5.37,0,0,0,.21-.56c0-.14.09-.28.13-.43s.09-.32.13-.49.06-.34.09-.5,0-.29.07-.44a4.93,4.93,0,0,0,.05-.54c0-.14,0-.28,0-.42v-.54c0-.14,0-.29,0-.43s0-.33-.05-.5a3.78,3.78,0,0,0-.06-.47c0-.15-.06-.3-.09-.45a4.05,4.05,0,0,0-.12-.5c0-.14-.07-.27-.11-.4l-.18-.53-.15-.37c-.07-.17-.15-.34-.23-.51s-.13-.25-.2-.38l-.26-.46c-.08-.14-.18-.27-.27-.41s-.17-.26-.27-.38a5.19,5.19,0,0,0-.37-.45l-.25-.3c-.15-.16-.3-.31-.46-.46l-.19-.19-.16-.14,0,0a90.92,90.92,0,0,0-16.38-11.52A10,10,0,0,0,116.48,63l-7.27,6.09A84.76,84.76,0,0,0,90,66.3V63a10,10,0,0,0-20,0v5.16a82.12,82.12,0,0,0-14.8,4.65l-7.07-5.93A10,10,0,0,0,35.27,82.17l1.48,1.23a97.85,97.85,0,0,0-25.36,28.15l0,0c0,.06-.08.13-.1.18s-.08.16-.12.24-.2.39-.29.59-.1.24-.14.36-.15.36-.21.54-.09.3-.13.45-.09.32-.13.48a4.54,4.54,0,0,0-.09.51,3.21,3.21,0,0,0-.07.43,4.89,4.89,0,0,0-.05.55c0,.13,0,.27,0,.41s0,.36,0,.54,0,.29,0,.43,0,.34.05.5a3.55,3.55,0,0,0,.06.47c0,.15.06.3.09.45a4.7,4.7,0,0,0,.12.51c0,.13.07.26.11.39l.18.53.15.37c.07.17.15.35.23.52l.2.37.26.46c.08.14.18.27.27.41s.17.26.27.38a5.46,5.46,0,0,0,.36.45l.26.3.46.46.19.19.16.14,0,0C20,130.08,41.56,147,72.38,147a82.86,82.86,0,0,0,8.64-.45c43.24-4.42,64.76-39.86,67.59-44.85l0,0a1.51,1.51,0,0,0,.1-.17,2.4,2.4,0,0,0,.11-.23q.16-.3.3-.6A3.65,3.65,0,0,0,149.28,100.34ZM79,126.7c-20.49,2.09-36.52-6-45.55-12.2A74.9,74.9,0,0,1,57.78,93.62a10.67,10.67,0,0,0,1-.53A63.62,63.62,0,0,1,81,86.59h0a65,65,0,0,1,26.86,2.92q.45.17.9.3a72.89,72.89,0,0,1,17.78,9C119.3,108.34,103.74,124.17,79,126.7Z"/></svg>