<svg xmlns="http://www.w3.org/2000/svg" viewBox="0 0 100 100"><defs><style>.cls-1{fill:#fff;}</style></defs><g id="Layer_2" data-name="Layer 2"><circle cx="50" cy="50" r="50"/><path class="cls-1" d="M75.51,31,63.68,60.17l-.56,1.38A4.26,4.26,0,0,1,59,64.39a3.86,3.86,0,0,1-3.25-1.26,9.22,9.22,0,0,1-1.23-4.6L53.17,40.87,47,56a112.46,112.46,0,0,1-5.6,12.35,19.83,19.83,0,0,1-5,5.66,16.17,16.17,0,0,1-10.22,3.46,13.43,13.43,0,0,1-10-3.86,13.68,13.68,0,0,1-3.82-10.05,20,20,0,0,1,6-14.44,24.27,24.27,0,0,1,8.1-5.36,24.44,24.44,0,0,1,9.53-2.05,6.71,6.71,0,0,1,3.9,1,3.2,3.2,0,0,1,1.43,2.74,3.1,3.1,0,0,1-1.14,2.63,7.39,7.39,0,0,1-3.78,1.12,22.46,22.46,0,0,0-9.4,2.69,13.62,13.62,0,0,0-4.7,4.66,11.4,11.4,0,0,0-1.75,6,7.62,7.62,0,0,0,1.72,5.26,6,6,0,0,0,4.73,1.92,8,8,0,0,0,6.14-3Q35.88,63.63,39,56l11.6-28.55q1.54-3.84,4.71-3.84,3.66,0,4,4.36l1.52,19.51L68.75,28l.47-1.17a4.05,4.05,0,0,1,4-2.75l1.2,0h6c2.72,0,4.07.92,4.07,2.75a3.73,3.73,0,0,1-1.43,3.14,6.38,6.38,0,0,1-4,1.11Z"/></g></svg>