<svg xmlns="http://www.w3.org/2000/svg" viewBox="0 0 113 30"><defs><style>.cls-1{fill:#fff;}</style></defs><g id="Layer_2" data-name="Layer 2"><path class="cls-1" d="M35.42,4.13,28.78,20.37l-.31.77a2.57,2.57,0,0,1-4.14.88,4.89,4.89,0,0,1-.69-2.56l-.76-9.84L19.45,18C17,23.41,17,25.1,13.5,28.07c-3.1,2.53-8.57,2.69-11.33-.22-3.6-3.67-2.39-10.16,1.24-13.64,2.68-2.68,8.41-5.32,12.07-3.57a1.92,1.92,0,0,1,.17,3,4.3,4.3,0,0,1-2.12.62c-3.58.38-6.14,1.32-7.91,4.09S4.39,25.8,8.25,25.69c3.84-.31,4.78-3.58,6.68-7.65l6.5-15.9C22,.71,22.9,0,24.08,0c1.37,0,2.11.81,2.23,2.43l.86,10.86L31.62,2.43C32,1.22,32.78.18,34.14.24h4c2.52-.18,2.91,2.06,1.48,3.28C38.8,4.31,36.63,4.11,35.42,4.13Zm.16,15.1c0,.64.63,1.06,1.9,1h4.89c2.38-.11,2.82,2.08,1.42,3.24-1,1-5.17.48-6.83.59a5.83,5.83,0,0,1-4.16-1.34c-3.88-4.2.53-12.35,6.2-12,6.56-.22,6.81,8.78,0,8.53Zm.81-4h1.82c1.19,0,1.77-.26,1.73-.78s-.41-.87-1.14-.87A2.67,2.67,0,0,0,36.39,15.23Zm21.52,5h2c2.39-.18,2.84,2,1.42,3.18a3.53,3.53,0,0,1-2.16.59c-1.34-.07-3.64.41-4.33-1.11-1.21,1.41-3,1.08-4.6,1.11a3.9,3.9,0,0,1-3.09-1.32c-4.36-5.2,4-16.27,9.64-10.65l3.88-9.45C61.75-.9,66.27-.5,65,3l-.2.47Zm-6.19.06c.87.06,1.86,0,2.15-.9l1.24-3.05a1.31,1.31,0,0,0-1.24-2.05,3.12,3.12,0,0,0-2.42,1.44C50.42,17,49.36,20.2,51.72,20.29Zm18.44-9.43a5.22,5.22,0,0,1,4.9,2.76c.48.85,1.92,4.81-.64,7.93-3,3.56-8.94,3.2-11.07.14C60.55,16.75,64.94,10.81,70.16,10.86Zm-3.34,5.66c-.53,1.39,0,3.27,1.27,3.77,1.45.59,3.39-.84,3.8-2.51C72.66,14,68.38,13.17,66.82,16.52ZM81,20.23h1.83c2.4-.18,2.85,2,1.44,3.18-1,.91-4,.5-5.3.59-2.47,0-3.43-1.78-2.28-4l7-17.19.19-.46C85.12-1,89.59.26,87.73,3.68Zm10.57,0h2.09c2.52-.19,3,2.14,1.5,3.37-1,.92-3.89.56-5.24.63-2.55.1-4.31-1.58-3.1-4l3-7.45c1-3.86,6.41-3.27,4.34,1ZM94.67,3.84a2.29,2.29,0,0,1,0,4.58A2.29,2.29,0,0,1,94.67,3.84Zm14.2,16.39h1.92c2.39-.17,2.81,2,1.41,3.17A3.47,3.47,0,0,1,110,24c-1.32-.06-3.72.38-4.27-1.16-1.38,1.39-2.89,1.16-4.51,1.16C98.53,24,97,21.76,97,19.09c-.16-4,3.48-8.65,7.53-8.56a3.61,3.61,0,0,1,3.25,1.54c.92-1.72,4-1.82,4.08.38C111.89,13.35,109.21,19.19,108.87,20.23Zm-6.21.06a2,2,0,0,0,2.23-1.1l1.16-2.85a1.31,1.31,0,0,0-1.26-2.05,3.16,3.16,0,0,0-2.36,1.4C101.25,17,100.45,20.18,102.66,20.29Z"/></g></svg>