<svg id="Layer_1" data-name="Layer 1" xmlns="http://www.w3.org/2000/svg" viewBox="0 0 100 100"><defs><style>.cls-1{fill:#231f20;}</style></defs><path class="cls-1" d="M70,58.14h0a3.53,3.53,0,0,0,3.54,3.54h5.78a3.55,3.55,0,0,1,3.54,3.54h0a3.54,3.54,0,0,1-3.54,3.54h0A9.32,9.32,0,0,0,70,78.08v2.16A9.76,9.76,0,0,0,79.76,90H90V61.66a7.06,7.06,0,0,0-7.06-7.06h-9.4A3.54,3.54,0,0,0,70,58.14ZM82.86,82.92H80.29a3.86,3.86,0,0,1-3.86-3.87h0a3.21,3.21,0,0,1,3.21-3.21h0a3.22,3.22,0,0,1,3.22,3.21Z"/><path class="cls-1" d="M67.86,72.33v14.1A3.57,3.57,0,0,1,64.29,90H60.71V72.33a3.57,3.57,0,0,1,3.58-3.57h0A3.57,3.57,0,0,1,67.86,72.33Z"/><path class="cls-1" d="M67.86,54.6v3.54a3.54,3.54,0,0,1-3.54,3.54h-.07a3.54,3.54,0,0,1-3.54-3.54h0a3.55,3.55,0,0,1,3.54-3.54Z"/><rect class="cls-1" x="51.43" y="54.6" width="7.14" height="35.4" rx="3.57"/><path class="cls-1" d="M31.43,63.53V90h4.69A13.17,13.17,0,0,0,49.29,76.84V63.53a8.93,8.93,0,0,0-8.93-8.93h0A8.93,8.93,0,0,0,31.43,63.53Zm5.71,19.39h0v-18a3.22,3.22,0,0,1,3.22-3.22h0a3.22,3.22,0,0,1,3.21,3.22V76.49A6.43,6.43,0,0,1,37.14,82.92Z"/><path class="cls-1" d="M29.29,64.24V90H17.08A7.08,7.08,0,0,1,10,82.92h4.89a7.26,7.26,0,0,0,7.25-7.25V64.54a2.86,2.86,0,0,0-2.85-2.86h0a2.86,2.86,0,0,0-2.86,2.86v4.87A6.43,6.43,0,0,1,10,75.84h0V64.24a9.65,9.65,0,0,1,9.64-9.64h0A9.65,9.65,0,0,1,29.29,64.24Z"/><path class="cls-1" d="M52.14,10V44.05a8.43,8.43,0,0,1-8.43,8.43h0A16.75,16.75,0,0,0,35.39,38l-17-9.87V44.05A8.44,8.44,0,0,1,10,52.48h0v-34A8.42,8.42,0,0,1,18.43,10h0a16.75,16.75,0,0,0,8.33,14.48l17,9.87V18.43A8.43,8.43,0,0,1,52.14,10Z"/><path class="cls-1" d="M82.86,23.42h0a4.93,4.93,0,0,0-4.93-4.92H65.68a4.24,4.24,0,0,0-4.25,4.24h0A4.25,4.25,0,0,0,65.68,27H75a4.25,4.25,0,0,1,4.25,4.25h0A4.26,4.26,0,0,1,75,35.49H69.92A8.49,8.49,0,0,0,61.43,44H82.86V39.06a3.57,3.57,0,0,1,3.57-3.57h0A3.57,3.57,0,0,1,90,39.06v6.8a6.62,6.62,0,0,1-6.62,6.62H54.29V21a11,11,0,0,1,11-11H77.87A12.13,12.13,0,0,1,90,22.13v1.29A3.57,3.57,0,0,1,86.43,27h0A3.57,3.57,0,0,1,82.86,23.42Z"/></svg>