<svg xmlns="http://www.w3.org/2000/svg" viewBox="0 0 100 40"><defs><style>.cls-1{fill:#fff;}</style></defs><g id="Layer_2" data-name="Layer 2"><path d="M80,0H27.57A27.66,27.66,0,0,0,0,27.57v4.32A8.11,8.11,0,0,0,8.11,40H80A20,20,0,0,0,80,0Z"/><path class="cls-1" d="M31.26,14.05,26.1,26.77l-.24.6a2,2,0,0,1-3.22.69,4,4,0,0,1-.54-2l-.59-7.69-2.66,6.58c-1.88,4.21-1.93,5.53-4.63,7.86-2.4,2-6.65,2.1-8.8-.18-2.8-2.87-1.85-7.95,1-10.68,2.09-2.09,6.54-4.16,9.39-2.79a1.51,1.51,0,0,1,.13,2.35,3.37,3.37,0,0,1-1.65.48c-2.78.3-4.77,1-6.15,3.21-.92,1.43-1.1,3.68,0,4.91a2.64,2.64,0,0,0,2.06.83c3-.24,3.71-2.8,5.18-6l5.06-12.45a2.23,2.23,0,0,1,2.06-1.67c1.06,0,1.64.64,1.73,1.9l.67,8.51,3.46-8.51c.29-.94.9-1.76,2-1.71H33.4c2-.14,2.26,1.61,1.15,2.57C33.88,14.19,32.19,14,31.26,14.05Z"/><path class="cls-1" d="M31.81,25c0,.67.5,1,1.51,1h3.86c1.88-.14,2.23,1.61,1.12,2.53-.79.77-4.08.38-5.4.47a4.61,4.61,0,0,1-3.28-1.06c-3.07-3.35.42-9.84,4.9-9.57,5.18-.18,5.38,7,0,6.63Zm.63-3h1.47c1,0,1.41-.21,1.39-.63s-.34-.71-.92-.71A2.16,2.16,0,0,0,32.44,22Z"/><path class="cls-1" d="M49.74,26h1.59c1.93-.14,2.29,1.63,1.15,2.58a2.87,2.87,0,0,1-1.73.47c-1.08-.06-2.93.34-3.49-.89-1,1.13-2.45.87-3.69.89A3.14,3.14,0,0,1,41.08,28c-3.5-4.22,3.24-13.18,7.75-8.62L52,11.71c.88-2.82,4.51-2.49,3.46.35l-.17.38Zm-5-.14c.69.05,1.49,0,1.72-.73l1-2.47a1.06,1.06,0,0,0-1-1.66,2.49,2.49,0,0,0-1.94,1.17C43.72,23.16,42.87,25.79,44.77,25.86Z"/><path class="cls-1" d="M59.59,18.23a4.18,4.18,0,0,1,3.93,2.23c.39.69,1.54,3.89-.51,6.42-2.43,2.88-7.18,2.6-8.9.12C51.86,23,55.39,18.18,59.59,18.23ZM56.9,22.81a2.46,2.46,0,0,0,1,3.05c1.17.48,2.73-.68,3-2C61.59,20.74,58.15,20.1,56.9,22.81Z"/><path class="cls-1" d="M68.26,26h1.47c1.92-.14,2.28,1.63,1.15,2.58-.79.74-3.2.4-4.26.47-2,0-2.76-1.44-1.83-3.25l5.65-13.91.16-.38c1-2.67,4.6-1.68,3.1,1.09Z"/><path class="cls-1" d="M76.72,26h1.56c1.88-.14,2.23,1.61,1.12,2.53a2.78,2.78,0,0,1-1.71.47H75.5c-1.9.07-3.21-1.18-2.31-3l2.27-5.59c.35-1.11,1.12-2,2.19-1.94,1.48.09,1.69,1.37,1,2.66Zm1.76-11.84a1.86,1.86,0,0,1,0,3.71A1.86,1.86,0,0,1,78.48,14.16Z"/><path class="cls-1" d="M90.7,26h1.54c1.92-.14,2.26,1.62,1.13,2.57a2.81,2.81,0,0,1-1.74.48c-1,0-3,.31-3.43-.94-1.11,1.13-2.32.95-3.62.94-2.19,0-3.46-1.81-3.43-4-.13-3.21,2.79-7,6-6.93a2.9,2.9,0,0,1,2.61,1.24c.74-1.39,3.21-1.47,3.28.31C93.12,20.43,91,25.16,90.7,26Zm-5-.14A1.6,1.6,0,0,0,87.5,25l.93-2.31a1.06,1.06,0,0,0-1-1.66,2.51,2.51,0,0,0-1.89,1.14C84.57,23.15,83.93,25.77,85.71,25.86Z"/></g></svg>