<svg id="Layer_1" data-name="Layer 1" xmlns="http://www.w3.org/2000/svg" viewBox="0 0 582.96 739.15"><defs><style>.cls-1{fill:#202020;}.cls-2{fill:#a10000;}.cls-3{fill:#373737;}.cls-4{fill:#ddd;}</style></defs><rect class="cls-1" x="137.14" y="413.19" width="197.03" height="79.87" rx="31.64" transform="matrix(-0.5, 0.87, -0.87, -0.5, 737.37, 445.18)"/><rect class="cls-1" x="104.27" y="70.93" width="480.16" height="374.63" rx="148.42" transform="translate(166.74 -168) rotate(30)"/><rect class="cls-2" x="134.31" y="103.33" width="420.06" height="309.83" rx="122.75" transform="translate(166.74 -168) rotate(30)"/><rect class="cls-1" x="-11.2" y="532.99" width="338.42" height="141.4" rx="43.62" transform="translate(-452.32 408.26) rotate(-60)"/><rect class="cls-3" x="-30.86" y="521.64" width="338.42" height="141.4" rx="43.62" transform="translate(-452.32 385.56) rotate(-60)"/><rect class="cls-4" x="24.16" y="626.18" width="99.8" height="28.19" rx="11.17" transform="translate(657.07 865.85) rotate(120)"/><rect class="cls-4" x="93.29" y="549.12" width="50.54" height="28.19" rx="11.17" transform="matrix(-0.5, 0.87, -0.87, -0.5, 657.07, 711.73)"/><path class="cls-4" d="M312.41,239.8l-22.54-84.1a26.08,26.08,0,0,1,50.38-13.49l22.54,84.1,84.1-22.54a26.15,26.15,0,0,1,31.93,18.44h0a26.15,26.15,0,0,1-18.44,31.94l-84.1,22.53,22.54,84.1a26.16,26.16,0,0,1-18.44,31.94h0a26.15,26.15,0,0,1-31.94-18.44l-22.53-84.1-84.1,22.54a26.16,26.16,0,0,1-31.94-18.44h0a26.15,26.15,0,0,1,18.44-31.94Z" transform="translate(-8.52 -30.42)"/></svg>