<svg xmlns="http://www.w3.org/2000/svg" viewBox="0 0 410.55 410.55">
    <defs>
        <style>
            .cls-1{fill:#ddd;}
            .cls-2{fill:#fff;}
            .cls-3{fill:#1f1f1f;}
        </style>
    </defs>
    <circle class="cls-1" cx="205.28" cy="205.28" r="205.28" />
    <circle class="cls-2" cx="205.28" cy="164.46" r="67.77" />
    <path class="cls-2" d="M94.87,279.79c-4.51,25.06,51.3,76,110.66,75.83,59.09-.17,114.68-51,110.15-76C307.61,235.12,102.88,235.29,94.87,279.79Z" />
    <path class="cls-3" d="M184.2,55.76s-6.51-1.36-16.69.76c-13.5,2.8-26.06,26-30.2,56.72-18.14,4.22-29.41,10.12-29.41,16.65,0,12.84,43.6,23.24,97.38,23.24s97.37-10.4,97.37-23.24c0-6.25-10.33-11.93-27.14-16.11-7.5-32.59-20.24-54-30.33-57.26a29.72,29.72,0,0,0-16.68-.76h0c-15.13,3.78-20.16,4-22.34,4-1.75,0-3-.09-4-.16C193.53,58.94,189.09,56.78,184.2,55.76Z" />
    <path class="cls-2" d="M137.31,113.24a9.69,9.69,0,0,0-.31,5.1c3.66,16.49,55.17,16.81,59.21,16.81.87,0-49.08-.93-56.87-23.39a18.93,18.93,0,0,1-1-5.05c-.18,1-.35,2-.51,3.07S137.46,112.11,137.31,113.24Z" />
</svg>