<?xml version="1.0" encoding="utf-8"?>
<svg version="1.1" id="dr" xmlns="http://www.w3.org/2000/svg" xmlns:xlink="http://www.w3.org/1999/xlink" x="0px" y="0px"
	 viewBox="0 0 250 300" style="enable-background:new 0 0 250 300;" xml:space="preserve">
<style type="text/css">
	.st0{fill:#FFFFFF;}
	.st1{fill:#30D1CD;}
	.st2{fill:#28A5AB;}
	.st3{fill:#3CF7FF;}
	.st4{fill:#396E6C;}
	.st5{fill:#509997;}
	.st6{fill:none;stroke:#000000;stroke-width:2.2547;stroke-miterlimit:2.2727;}
	.st7{fill:#EFEFEF;}
</style>
<g id="bg-str">
	<path class="st0" d="M128.6,298.6c-3.2,0-6.2-0.8-8.9-2.2c-9.7-5.4-13-18.3-16.2-30.6c-0.4-0.3-0.6-0.5-1-0.8
		c-1.7-0.1-3.4-0.2-5.1-0.5c-0.5-0.1-1,0.3-1.2,0.8C91.4,282.6,83,294.3,73.1,297c-4.3,1.2-8.7,0.5-12.4-1.8
		c-2.8-1.5-6.4-4.6-8-11.1c-2.3-7.1-3.5-19.4,3.1-38.9c0.1-0.4,0-0.8-0.2-1.1c-3.4-3.6-6.4-7.6-8.8-11.9c-0.3-0.6-1-0.7-1.5-0.4
		c-3.8,2.4-7.6,3.7-11.5,3.7c-1.4,0-2.8-0.2-4.1-0.5c-6.6-1.7-11.5-7.3-13.1-15c-1.3-6.4-2.9-28.9,29.8-54.8
		c0.1-0.1,0.3-0.3,0.3-0.4c1.3-3.2,2.7-6.4,4.2-9.6c0.2-0.4,0.1-0.9-0.2-1.3c-1.3-1.2-2.6-2.5-3.7-3.8c-0.2-0.2-0.4-0.3-0.7-0.4
		c-3.5-0.4-7.2-1.4-11-3.1c-25.7-11.5-29-52.6-23-78.2c0.1-0.3,7.6-31.2,37.9-53.3c5.6-4.1,11.4-6.4,16.7-6.7
		c4.9-0.3,7.9,1,10.2,2.1c1.6,0.7,2.9,1.3,5.3,1.6c3.9,0.5,7.3-0.1,10.7-0.7c7.1-1.2,10.5-1,13.9,1c3.1,1.8,4.8,4.4,5.4,5.2
		c2.2,3.4,2.4,6.6,2.7,9.7c0,0.4,0.1,0.8,0.1,1.2c0.3,3.1,0.8,6.1,1.5,9.5c0.6,3.4,1.5,6.8,2.4,10.2c0.1,0.4,0.5,0.7,0.9,0.8
		c0.8,0.1,1.5,0.2,2.3,0.2c0.5,0.1,0.9-0.2,1.1-0.6c2.2-4.9,3.9-10,5.2-15.2c1.2-5.1,1.7-9.5,2-12.6c0.5-4.7,0.9-8.5,3.7-10.9
		c5.3-7.2,13.6-5.9,19.8-5c5.1,0.8,10.3,1.6,16.3,0c1.8-0.5,3.3-1,4.9-1.6c4-1.5,8.5-3.1,14.5-1.3c6,1.7,9.5,5.8,10.9,7.3l0.1,0.1
		c43.2,52.2,53.7,84.4,37.6,114.8l-0.5,0.8c-6.7,9.1-17.5,14.6-29.5,15.2c-6.5,0.3-12.7-0.8-18.3-3.3c-0.5-0.2-1.1,0-1.4,0.5
		c-5.1,10-12.4,18.5-21.7,24.8c-0.4,0.3-0.6,0.8-0.4,1.2c0,0,0,0,0,0c0.2,0.7,1.1,1,1.7,0.6c1.8-1.3,3.4-2.7,5.4-4.6
		c2.3-2.1,4.9-4.4,8.7-7.3c14.1-10.5,23.2-7.6,27.3-4.9c6.5,4.1,9.3,12.8,7.3,22.7c-2.9,14.4-16.4,32.8-44.7,39.5
		c-0.4,0.1-0.8,0.5-0.8,0.9c-2.6,18.2-11.2,32.8-25.3,42.7c-0.3,0.2-0.5,0.6-0.5,1.1c0.3,1.9,0.7,3.9,1.1,6
		c2.5,12.6,5.6,28.3-9.4,36.6c0,0-0.1,0-0.1,0.1l-1,0.5c0,0-0.1,0-0.1,0C133.5,298.2,131,298.6,128.6,298.6z M110.8,254.1
		c0.5,0,0.9,0.3,1.1,0.8l0.9,3.2c0.5,1.7,0.9,3.4,1.4,5.2c2.5,9.6,5.3,20.4,10.8,23.5c1.9,1.1,4.3,1.2,7.2,0.3
		c0.1,0,0.2-0.1,0.3-0.1c6.8-4.1,6.3-11.1,3.6-24.7c-0.8-3.9-1.4-7.3-1.8-10.8l-0.3-2.8c0-0.4,0.2-0.8,0.5-1.1l2.4-1.4
		c0.7-0.4,1.3-0.8,2-1.2c13.1-8.7,20.8-22.6,22.2-40.2l0.3-3.3c0-0.5,0.4-0.9,0.9-1l3.3-0.6c26.2-4.7,38.3-20.1,40.7-31.9
		c1.1-5.2,0.1-9.7-2.5-11.3c-3-1.9-8.6-0.3-15,4.4c-3.4,2.6-5.8,4.7-7.9,6.7c-4.3,3.9-7.7,7-15.5,10.2l-4.7,1.9
		c-0.6,0.3-1.3-0.1-1.5-0.7l-1.2-4.9c-1-3.9-2.1-7.9-3.5-11.9l-1.2-3.4c-0.2-0.5,0-1,0.5-1.3l3.1-1.8c11.5-6.6,19.7-16.4,24.4-28.9
		l2-5.3c0.3-0.7,1.1-0.9,1.7-0.5l4.6,3.4c5,3.6,11.3,5.4,18,5.1c8.6-0.4,16.3-4.2,21-10.5c0-0.1,0.1-0.1,0.1-0.2
		c13.3-25.6,3.1-54.4-36.5-102.3c-0.9-1.1-2.8-3.2-5.7-4c-2.5-0.7-4.1-0.2-7.7,1.1c-1.7,0.6-3.6,1.3-5.9,1.9
		c-8.2,2.1-15.1,1.1-20.7,0.2c-6.8-1-8.4-0.9-9.6,1l-0.7,1l-0.2,0.1c-0.2,1-0.4,2.7-0.6,4.2c-0.4,3.5-0.9,8.2-2.3,13.9
		c-1.8,7.6-4.5,14.9-8.1,21.8l-1.4,2.7c-0.2,0.4-0.7,0.6-1.1,0.6l-3.1-0.4c-3.6-0.5-7.2-0.9-10.7-1.2l-2.9-0.2c-0.4,0-0.8-0.3-1-0.7
		l-0.9-2.8c-1.7-5.1-3-10.4-4-15.7c-0.7-3.5-1.3-7-1.6-10.6c0-0.5-0.1-0.9-0.1-1.3c-0.2-2.6-0.3-3.6-1-4.7c-0.2-0.4-0.7-1.2-1.5-1.6
		c-0.4-0.2-1.1-0.6-6.7,0.3c-3.7,0.6-8.3,1.4-13.8,0.7c-4.1-0.5-6.5-1.6-8.4-2.5c-1.9-0.8-2.9-1.3-5.2-1.2
		c-3.2,0.2-7.1,1.8-10.9,4.6c-26.8,19.5-33.6,46.7-33.7,47c-5.1,22.1-2.2,57.3,16.8,65.8c3.4,1.5,6.6,2.3,9.4,2.3l0.3,0h2.2
		c0.3,0,0.7,0.2,0.9,0.4l1.3,1.7c2,2.6,4.6,5.2,7.7,7.6l2.9,2.2c0.4,0.3,0.5,0.9,0.3,1.4l-1.7,3.2c-2.6,4.9-4.8,9.9-6.7,14.8
		l-0.4,1.1c-0.1,0.2-0.2,0.4-0.4,0.5l-1,0.7c-23.2,17.9-29.2,35.5-27.2,45.2c0.4,2.1,1.7,5.8,5.1,6.7c3.3,0.8,7.7-1.4,11.8-5.9
		l4.8-5.3c0.5-0.6,1.5-0.4,1.8,0.4l2.5,6.7c2.7,7.2,7,13.5,12.8,18.8l2.2,2c0.3,0.3,0.4,0.8,0.3,1.2l-1,2.8
		c-7.8,20.8-5.6,32-4.3,35.8l0.1,0.5c0.5,2.3,1.4,3.7,2.5,4.2l0.4,0.2l0.3,0.2c1.1,0.8,2.3,0.9,3.7,0.5c4.1-1.1,12.3-8.6,16.9-29.6
		l0.9-4.2c0.1-0.6,0.7-1,1.3-0.8l4.2,0.9c4.3,0.9,8.8,1.3,13.1,1.3L110.8,254.1z"/>
</g>
<g id="rabbit">
	<g id="fill">
		<path class="st1" d="M105.2,18.1c-9.5-7.1-14.1,5.4-37.5-4.4c-6.4-2.3-17.9,8.1-21.4,11.3C-18.5,78.2,29.5,179,67,131.3
			C85.1,100.3,76.2,49.9,105.2,18.1z"/>
		<path class="st2" d="M85.8,56.6c3.8-10.6,9.1-34,19.8-37.3c1.4,0.4,1.8,2.6,2.8,8.8c2.2,12.7,1.4,13.2,5.3,25.1
			C105.7,53,93.8,54.5,85.8,56.6z"/>
		<path class="st3" d="M85.8,56.6c25-5.6,55.2-3.3,77.3,10.8c3.7,17.1,4.3,46.2,23.5,59c-1.9,5.4-5.7,14.2-13.4,22.4
			c-23.4,25.1-65.6,26.5-95.1,14C65,157.3,55.4,149.4,49.1,143c2.8-0.1,5.5-0.7,8.1-1.8C64.5,138,72,129.6,81.5,81
			C83.4,71.3,84.8,63,85.8,56.6z"/>
		<path class="st3" d="M158.5,159.7c49.6,144.5-169.4,123.5-100.1-6.2c13.2,11.5,27.4,12.5,46.6,15.2
			C129.2,171.3,137.1,170.9,158.5,159.7z"/>
		<path class="st1" d="M72.2,162.4c-42.9,121.2,94.3,134,70.8,5.2C118.5,173.1,95.6,167.2,72.2,162.4z"/>
		<path class="st4" d="M111,43.5C108.6,37,96.1,33,90.4,42.6c2.3-9.3,9.6-22.7,15.9-23.1c1.7,0.6,1.7,3.9,2.5,10.8
			C109.6,35.8,110.3,40.3,111,43.5z"/>
		<path class="st1" d="M79.4,163.8c18.8,6.3,56,6.5,55.4-20.7c-1.4-17.8-15.1-22.7-19.6-40.8c-9.4-28,19.1-46.8,41.5-38.5
			c-21-9.5-45.8-12.7-70.8-7.1c-1.7,13.7-3.9,25-5.7,33.2c-9.1,41.8-18.4,49.2-24.6,52.1c-1.7,0.8-3.5,1.4-5.4,1.8
			C58.1,152.8,68.1,159.7,79.4,163.8z"/>
		<path class="st5" d="M64.6,158.3c20.5,29.3,66.5,25,84.4,6.5C126.7,175.1,87.6,167.4,64.6,158.3z"/>
		<path class="st5" d="M80.1,87.8c39.8-8.8,29,64.5-10.1,34.6C74.5,113.2,79,97.8,80.1,87.8z"/>
		<path class="st5" d="M132.2,101.4C116,122,140,147.4,161,130.2C181.5,110.9,149.3,82.3,132.2,101.4z"/>
		<path class="st2" d="M127.1,55c10.5-18,5.4-16.6,10.6-38.5c0.2-1.1,0.6-2.9,1.6-3.2c10.1,7,17,30.4,23.5,53.3
			C155,60.8,136.4,54.9,127.1,55z"/>
		<path class="st4" d="M134.3,36.6c12.4-13,22.8,5.6,28.1,27.9c-5.9-18.5-13.7-44.9-23.1-51.2c-1.4,0.4-1.2,4-2.3,10.8
			C136.4,28.3,135.5,32.5,134.3,36.6z"/>
		<path class="st1" d="M139.4,12.8c7.2-7.3,20.6,0.4,29.8-2.1c9.8-1.1,11.8-4.2,16.6-4.1c10-2.1,40.2,45.5,40.1,46.8
			c11.8,22.4,14.3,32.4,13.4,53.3c-3.8,27.7-39.2,35-55.1,17.8c-16.9-12.5-18.5-49.2-23.5-68.7c-3.5-14.2-10.8-26.4-14.3-34.3
			C146.2,19.8,142.6,13.8,139.4,12.8z"/>
		<path class="st3" d="M162.9,174.7c3.7-1.5,7.3-3.5,10.6-5.8c3.6-2.1,19.6-18.5,24.7-17.8c14.6-0.5,16.7,17,9.9,26.1
			c-10.4,17.7-28.7,24.9-43.6,27.9C166,194.8,166,185,162.9,174.7z"/>
		<path class="st5" d="M108.2,259c1.9,8.3,5.6,25.7,13.4,32.3c8.7,5.8,20.3-0.8,21-11.1c1.4-4.3-2.6-20.2-4-29
			C132.1,255.6,115.7,260.4,108.2,259z"/>
		<path class="st5" d="M63,243.8c-2.2,6.7-13.7,43.7,0.9,48.4c19.8,2.8,21.9-19.6,27.5-34.6C83.5,258.3,67.5,249.2,63,243.8z"/>
		<path class="st1" d="M111,268.7c8.3,2.3,24.5-3.1,29.5-9.2l2.3,14.5c-5.7,5.9-21.3,9-28.1,6.5C113.4,276.6,112.2,272.6,111,268.7z
			"/>
		<path class="st1" d="M60,252.1c-1.2,5.4-2.5,10.8-3.7,16.1c4.2,8.9,18.7,14.7,27,12.2l5.5-13.4C79.2,269.8,63.8,262.5,60,252.1z"
			/>
		<path class="st3" d="M156.9,10.8c11.5,15.3,16.7,28.9,19.4,38.6c4.4,16,2.8,24.7,10.5,42.7c4.2,9.7,10,22.8,19.8,23.7
			c4.4,0.4,8.8-1.9,11.6-4.9c1.9-2.1,5.3-7.3-0.2-28.4c-14.5-42.8-15.6-41.7-42.7-73.3C170.6,11.4,161,11.9,156.9,10.8z"/>
		<path class="st3" d="M89.1,17.4c-19.9,30-15.8,42.4-24.3,79.4c-3.9,17-7.4,28.8-14.5,30c-7.8,1.4-15.8-11.4-16.4-12.5
			c-9.1-15.1-4.3-32.8-2-41.3C40.3,42.4,63.7,23.8,75,16.1C78.4,18.1,86.2,18.5,89.1,17.4z"/>
		<path class="st1" d="M177.4,165.9c5.8,7.8,12.2,18.7,15.9,27.2c3.6-2.4,8.4-6.8,11.3-10.6c-2.9-7.3-12.6-19.3-18.9-23.7
			C183.1,160.3,179.4,163.5,177.4,165.9z"/>
		<path class="st5" d="M139.4,57.1c-7.7-3-28.8-1.2-34.6,6c0.3,0.6,10.6-4,11.5-2.3c0.8,1.4-5.5,5.7-4.8,6.7
			c10.1-3.3,24.8-11.9,41.5-5.5C148.7,59.8,144.1,58.1,139.4,57.1z"/>
		<path class="st5" d="M126.7,169.8c13.3-2.6,21-8.1,25.6-12.9c5.7-5.9,8.8-13.1,10.4-12.4C167.1,160.9,142.4,168.8,126.7,169.8z"/>
		<path class="st5" d="M65.3,158.3c7.1,2,14.5,2.9,21.9,2.8c9.8-0.2,18.7-2.4,18.9-1.4c0.2,0.9-7.4,3.3-7.2,4.1
			c0.2,0.7,5.7,0.1,10.8-1.2c6-1.5,9.4-3.5,9.7-3C108.4,173.4,79.4,165.5,65.3,158.3z"/>
		<path class="st5" d="M180.2,120.7c2.1,5.9-0.5,21.9-6.9,28.1c4.8-3.6,12.2-15.4,13.4-22.4C184.3,124.8,182.1,122.9,180.2,120.7z"
			/>
		<path class="st5" d="M102.2,217.5c-5.9-6.8-4.7,5-1.2,6.9C107,223.6,110.4,211.5,102.2,217.5z"/>
		<path class="st0" d="M141.2,246.4c-0.6-0.6,6.8-7.1,12.7-20.1c4.4-9.7,5.1-16.7,5.8-16.6C163.5,219,150.4,244.4,141.2,246.4z"/>
		<path class="st0" d="M208.8,166.4c-2.9,8.7-8.1,16.5-12.7,20.1C197.5,186.9,210,175.2,208.8,166.4z"/>
		<path class="st0" d="M154.8,70.6c-5.8-1.7-7.4-4.1-12.7-6c-4.5-1.7-7.3-1.5-7.3-1.9c0-0.7,7-2.2,13.6,0.3
			C151.6,63.9,166.8,74.5,154.8,70.6z"/>
		<path class="st3" d="M51,169.7c-52.9,41-23,76.9-3.4,51.4C44.8,207,46.8,182.1,51,169.7z"/>
		<path class="st1" d="M24.4,200.9c1.7,6.9,12.2,20.9,19.2,24.6l3.9-4.4c-0.4-3.4-0.8-6.7-1.2-10.1c-5.3-6.4-11-15.7-14.3-22.6
			C29.4,191.6,26.1,197,24.4,200.9z"/>
		<path class="st0" d="M27.4,203.4c-1.4-0.1,11.6-19.8,14-20.4C42.1,183.4,28.1,203.8,27.4,203.4z"/>
	</g>
	<g id="stroke">
		<path class="st6" d="M186.7,126.4C165.2,188.8,71.9,174.3,49,143.1"/>
		<path class="st6" d="M86.2,56.5c18.1-6.6,63.1,0.5,77.2,11.1"/>
		<path class="st6" d="M158.6,159.8c49.8,142.5-169.3,125-100.1-6.2"/>
		<path class="st6" d="M162.8,174.6c12.1-4.7,13.2-8.8,24-17c34.7-25.7,38,37.3-21.2,47.2"/>
		<path d="M71.3,120.9c11.2,11.5,33.6,3.6,33.8-12.7c0.2-12.4-13.3-21.5-24.9-18.5C77.8,100.3,74.9,110.7,71.3,120.9z"/>
		<path d="M142,133.2c-21.9-5.1-18.2-35.7,4.3-36.3C175.5,98.4,169.9,138,142,133.2z"/>
		<path d="M125.9,147c-4.4-2.9-6.1,6.5-11,1.4c-1.5-1.7-2.5-4.7-1.7-6.8l10.1-6.6c0.1-0.1,0.2-0.2,0.3-0.3c2.2-2-1.1-5.4-3.2-3.3
			l-7.7,7.4l-5.3-8.9c-0.7-1.1-2.1-1.4-3.2-0.8c-1.1,0.7-1.4,2.1-0.8,3.2c0.1,0.1,0.2,0.2,0.3,0.4l7.9,8.6
			c-0.6,3.9-6.8,10.6-9.5,5.1c-1.6-7.1-7.8-4.1-6.2-0.1c3.2,7.4,11.2,8.7,15.4,1.4C114,160.4,132.2,152.4,125.9,147z"/>
		<path class="st6" d="M63,243.8c-20.9,55.1,17.1,68.2,28.2,13.9"/>
		<path class="st6" d="M108.1,259.1c4.6,16.4,7.7,39.3,26.1,33.4c14.4-7.9,6-25.4,4.4-41.2"/>
		<path class="st6" d="M127.1,55.1c3.5-6.7,6.1-13.8,7.9-21.2c2.9-12.5,1.8-20,4.3-20.6c11,5.5,21.9,46.4,23.9,54.7
			c5.2,24.8,2.2,37,20,55.6c13,14.4,38.6,13,50.2-2.7c14.2-26.7,5.7-56.6-37.2-108.5c-1.2-1.4-3.8-4.2-7.9-5.4
			c-5.7-1.7-9.2,1.3-16,3c-17.9,4.7-30.1-7.7-34.7,6.5"/>
		<path class="st6" d="M114.1,54c-1.7-5.1-3.1-10.4-4.1-15.7c-2.2-11.6-1.8-18.3-4.3-19c-0.3,0.1-0.8,0.3-1.4,0.6
			c-8.6,4.1-12.2,13.7-14,19.2c-9.1,28.8-11.6,92.8-34.8,102.8c-7.8,3.4-16-0.3-18.4-1.3c-20.9-9.3-25.3-46.2-19.5-71.4
			c0,0,6.7-28.8,35.7-49.9c6.7-4.9,11.6-5.4,13.3-5.5c6.3-0.3,7.2,2.8,14.6,3.7c13.5,1.6,21.7-6.6,26.3,4.6"/>
		<path class="st0" d="M94.3,109.2c6.6-0.5,8.1,7.6,0.8,7.5C89.9,116.4,89.1,110.4,94.3,109.2z"/>
		<path class="st0" d="M92.9,117.5c3.5,0.7,3,4.8-0.5,4.9C88.1,121.9,88.5,116.7,92.9,117.5z"/>
		<path class="st0" d="M158.9,117.3c-4.3-0.1-4.7,6.3-0.5,6.8C164,124.1,164.5,118.2,158.9,117.3z"/>
		<path class="st7" d="M155.5,121.6c-0.7-2.3,1.1-4.4,3.4-4.4c-5.5-0.4-7,5.6-1.1,6.7C156.7,123.5,155.8,122.7,155.5,121.6z"/>
		<path class="st0" d="M154.3,124.6c-3.4-0.3-3,4,0.1,4.4C158.1,128.9,157.9,124.7,154.3,124.6z"/>
		<path class="st0" d="M187.3,66.8c-3,0.8,5.9,36,13.8,41.5c0.5-0.3-1.8-5.5-5.1-14.8C189.4,75,188.1,66.6,187.3,66.8z"/>
		<path class="st0" d="M64.6,81.4c1.8,0.7-4.3,24.2-6.2,23.9C55.1,101,61.5,81,64.6,81.4z"/>
		<path class="st6" d="M51.8,168.9c-51.1,38.9-26.7,78.9-4.2,52.1"/>
	</g>
</g>
</svg>
